HIERARCHY
ROOT Hips
{
	OFFSET 0.000000 0.000000 0.000000
	CHANNELS 6 Xposition Yposition Zposition Zrotation Yrotation Xrotation 
	JOINT LHipJoint
	{
		OFFSET 0.000000 0.000000 0.000000
		CHANNELS 3 Zrotation Yrotation Xrotation
		JOINT LeftUpLeg
		{
			OFFSET 1.363060 -1.794630 0.839290
			CHANNELS 3 Zrotation Yrotation Xrotation
			JOINT LeftLeg
			{
				OFFSET 2.448110 -6.726130 0.000000
				CHANNELS 3 Zrotation Yrotation Xrotation
				JOINT LeftFoot
				{
					OFFSET 2.562200 -7.039590 0.000000
					CHANNELS 3 Zrotation Yrotation Xrotation
					JOINT LeftToeBase
					{
						OFFSET 0.157640 -0.433110 2.322550
						CHANNELS 3 Zrotation Yrotation Xrotation
						End Site
						{
							OFFSET 0.000000 0.000000 0.000000
						}
					}
				}
			}
		}
	}
	JOINT RHipJoint
	{
		OFFSET 0.000000 0.000000 0.000000
		CHANNELS 3 Zrotation Yrotation Xrotation
		JOINT RightUpLeg
		{
			OFFSET -1.305520 -1.794630 0.839290
			CHANNELS 3 Zrotation Yrotation Xrotation
			JOINT RightLeg
			{
				OFFSET -2.542530 -6.985550 0.000000
				CHANNELS 3 Zrotation Yrotation Xrotation
				JOINT RightFoot
				{
					OFFSET -2.568260 -7.056230 0.000000
					CHANNELS 3 Zrotation Yrotation Xrotation
					JOINT RightToeBase
					{
						OFFSET -0.164730 -0.452590 2.363150
						CHANNELS 3 Zrotation Yrotation Xrotation
						End Site
						{
							OFFSET 0.000000 0.000000 0.000000
						}
					}
				}
			}
		}
	}
}
MOTION
Frames: 16
Frame Time: 0.008333
-1.979745 16.800606 0.314664 -146.863324 77.267673 -134.078876 -9.984823 -1.668243 -3.941600 -16.929298 10.893883 -36.335055 -2.095356 0.779521 30.207110 2.711955 12.247443 -16.299125 178.119300 0.000000 -0.418200 11.152336 -1.015818 -6.252038 -1.486807 -19.166073 -23.310181 -0.084637 -5.030033 60.454402 -1.452481 2.657016 30.510944 2.359200 0.000000 -71.168500
-1.877367 16.822259 0.224460 -147.176812 77.088258 -134.542956 -10.021667 -1.627051 -3.964318 -16.903415 10.792003 -35.175569 -2.086942 0.692672 29.542315 2.746905 12.399263 -16.599946 -1.987900 0.000000 -0.034700 11.129180 -0.912063 -6.237340 -1.483958 -18.772742 -24.265447 -0.213230 -5.142568 61.932770 -1.536166 1.297885 29.807026 1.553700 -0.000001 -69.063600
-1.775215 16.846741 0.132174 -147.494246 76.820886 -134.972426 -10.082786 -1.589757 -3.947275 -16.796611 10.585024 -34.011563 -2.066317 0.603526 28.774047 2.765288 12.512365 -16.712120 -2.041401 -0.000000 -0.360600 11.082114 -0.839905 -6.208496 -1.337546 -18.293652 -25.203002 -0.338568 -5.241729 63.215546 -1.572334 0.288735 28.693614 0.955399 0.000000 -67.474800
-1.672976 16.873598 0.039162 -147.923431 76.463413 -135.475998 -10.163970 -1.553684 -3.893390 -16.634637 10.267905 -32.862262 -2.034556 0.516676 27.955403 2.765979 12.577844 -16.652179 -2.043000 0.000000 -0.548400 11.015294 -0.794952 -6.166835 -1.083696 -17.754761 -26.109425 -0.455076 -5.325672 64.289923 -1.563367 -0.358341 27.260509 0.573700 -0.000000 -66.327400
-1.570550 16.902532 -0.053366 -148.555055 76.014262 -136.144881 -10.259111 -1.516326 -3.808811 -16.446839 9.846860 -31.741621 -1.994790 0.435224 27.126868 2.748831 12.586289 -16.448789 -1.999200 0.000000 -0.617200 10.933244 -0.770806 -6.114426 -0.760432 -17.182606 -26.973887 -0.556024 -5.393496 65.146420 -1.515208 -0.673518 25.613205 0.381900 0.000000 -65.535500
-1.467934 16.933355 -0.144298 -149.445226 75.473277 -137.037296 -10.361233 -1.474734 -3.700561 -16.262265 9.337735 -30.656906 -1.951593 0.360618 26.312629 2.714219 12.528001 -16.135787 -1.918600 0.000000 -0.607400 10.840630 -0.759912 -6.052975 -0.404463 -16.602545 -27.789029 -0.635592 -5.444683 65.781244 -1.437313 -0.720732 23.866115 0.330700 0.000000 -64.986200
-1.365276 16.965958 -0.232871 -150.604890 74.840917 -138.168339 -10.464002 -1.425786 -3.575331 -16.104804 8.764701 -29.609411 -1.910029 0.292996 25.521797 2.662792 12.394543 -15.746056 -1.810800 0.000000 -0.572400 10.741594 -0.754578 -5.983810 -0.045892 -16.037721 -28.552665 -0.690506 -5.478918 66.198734 -1.341709 -0.586150 22.130302 0.362700 -0.000000 -64.505100
-1.262762 17.000131 -0.318731 -152.002472 74.117005 -139.507983 -10.561975 -1.368451 -3.440945 -15.989718 8.155791 -28.598548 -1.874805 0.231527 24.753244 2.595241 12.178620 -15.309098 -1.684800 0.000000 -0.563900 10.639510 -0.747532 -5.909063 0.295671 -15.504637 -29.267805 -0.720202 -5.496272 66.407454 -1.242399 -0.369040 20.515999 0.423700 0.000000 -64.075600
-1.160670 17.035720 -0.401879 -153.574615 73.302696 -140.996827 -10.652327 -1.302058 -3.303457 -15.922558 7.540383 -27.619546 -1.849449 0.174970 23.997161 2.512068 11.875663 -14.844388 -1.547400 -0.000001 -0.630400 10.536417 -0.733363 -5.830561 0.610632 -15.015189 -29.939368 -0.727273 -5.496934 66.422609 -1.152200 -0.162797 19.105742 0.472500 -0.000001 -63.627600
-1.059243 17.072444 -0.482644 -155.241979 72.399536 -142.559826 -10.734380 -1.226710 -3.166875 -15.899674 6.945161 -26.667971 -1.835944 0.122003 23.240846 2.413593 11.483463 -14.361317 -1.403200 -0.000000 -0.809800 10.433357 -0.709040 -5.748782 0.898358 -14.573267 -30.573279 -0.716142 -5.481109 66.261696 -1.081436 -0.046209 17.952401 0.482201 -0.000000 -63.154800
-0.958750 17.109939 -0.561624 -156.919564 71.410313 -144.115062 -10.809435 -1.144008 -3.034773 -15.908970 6.392123 -25.740861 -1.834515 0.071783 22.474064 2.300053 11.002535 -13.859804 -1.254400 0.000000 -1.126600 10.330303 -0.673737 -5.664562 1.166351 -14.176001 -31.174391 -0.691470 -5.449413 65.941524 -1.036749 -0.075835 17.074684 0.437499 -0.000000 -62.691399
-0.859392 17.147799 -0.639539 -158.533093 70.339541 -145.592101 -10.880202 -1.055767 -2.908848 -15.933694 5.896476 -24.837575 -1.843911 0.024112 21.691772 2.171734 10.435654 -13.332360 -1.102000 0.000000 -1.590600 10.226593 -0.628791 -5.577623 1.426302 -13.814538 -31.744979 -0.657270 -5.402513 65.477180 -1.020832 -0.282745 16.458145 0.331401 -0.000000 -62.275400
-0.761331 17.185547 -0.717136 -160.025744 69.193504 -146.938105 -10.950062 -0.963849 -2.789259 -15.955162 5.465609 -23.960063 -1.861666 -0.020470 20.896443 2.029338 9.788486 -12.767460 -0.946300 0.000000 -2.194800 10.121296 -0.577096 -5.486818 1.690028 -13.476109 -32.283910 -0.616194 -5.341177 64.880059 -1.032852 -0.673884 16.060275 0.162400 0.000000 -61.930900
-0.664614 17.222740 -0.795055 -161.362586 67.979646 -148.121009 -11.022287 -0.870371 -2.675473 -15.956145 5.098135 -23.113192 -1.884622 -0.060777 20.098641 1.874387 9.069809 -12.154999 -0.788900 0.000001 -2.914300 10.013257 -0.522181 -5.390862 1.968187 -13.144934 -32.788394 -0.569557 -5.266357 64.157822 -1.069305 -1.235531 15.821622 -0.066700 -0.000000 -61.664000
-0.569211 17.258954 -0.873726 -162.531134 66.706396 -149.130623 -11.099409 -0.777162 -2.566055 -15.923078 4.784809 -22.303559 -1.909422 -0.095201 19.315364 1.709303 8.291171 -11.488673 -0.632400 -0.000001 -3.708400 9.901531 -0.467650 -5.288103 2.267043 -12.804376 -33.253665 -0.517726 -5.179090 63.314922 -1.124869 -1.937977 15.674194 -0.348200 0.000001 -61.454500
-0.474966 17.293846 -0.953358 -163.538504 65.383113 -149.974861 -11.182546 -0.685747 -2.459243 -15.847893 4.509574 -21.537656 -1.932956 -0.122094 18.567888 1.537754 7.467977 -10.770551 -0.481599 0.000000 -4.524500 9.785619 -0.416430 -5.176875 2.587404 -12.438185 -33.674562 -0.460573 -5.080509 62.353361 -1.193403 -2.741431 15.552082 -0.669500 0.000000 -61.268800
